<svg xmlns="http://www.w3.org/2000/svg" viewBox="0 0 84.67 84.67"><defs><style>.a{fill:#fff;}.b{fill:#00a9e5;}</style></defs><title>wazuh_logo_circle</title><circle class="a" cx="42.34" cy="42.34" r="42.34"/><path class="b" d="M58.13,9.2,50,26.32H35.07L26.16,9.2,20,31l-8.53,9.72,19.18,17.6,7.47,17.21h8.53l7-16.91L73.24,40.83l-8.73-9.57ZM48.58,55.13a1.79,1.79,0,0,1-.74.62,2.49,2.49,0,0,1-1,.2,2.52,2.52,0,0,1-1-.2,1.84,1.84,0,0,1-.71-.62l-2.88-4.36-2.9,4.36a1.87,1.87,0,0,1-.72.62,2.48,2.48,0,0,1-.95.2,1.94,1.94,0,0,1-1.7-.82L21.3,41.37h4.09L37.87,52.3l2.49-3.89h3.93L47,52.3,59.63,40.9h3.74Z"/></svg>